<svg xmlns="http://www.w3.org/2000/svg" xmlns:xlink="http://www.w3.org/1999/xlink" version="1.1" x="0px" y="0px" width="180.766px" height="40.995px" viewBox="0 0 180.766 40.995" enable-background="new 0 0 180.766 40.995" xml:space="preserve"><g><g><path fill="#818181" d="M70.397 18.659c-0.839 0.514-1.6 1.06-2.426 1.475c-5.602 2.815-11.22 5.598-16.828 8.4 c-2.343 1.171-4.677 2.359-7.009 3.551c-0.314 0.161-0.593 0.392-0.947 0.631c1.021 0.6 1.748-0.035 2.486-0.344 c3.083-1.291 6.158-2.606 9.211-3.967c7.104-3.168 14.462-5.656 21.795-8.216c11.784-4.115 23.811-7.363 35.965-10.156 c6.493-1.492 12.99-2.981 19.522-4.286c5.331-1.065 10.712-1.89 16.081-2.757c3.152-0.509 6.325-0.88 9.486-1.331 c4.906-0.699 9.819-1.295 14.784-1.361c0.864-0.012 1.729-0.317 2.588-0.297c1.881 0 3.8 0.2 5.7 0.6 c-0.341 0.062-0.681 0.147-1.025 0.182c-0.51 0.052-1.027 0.039-1.533 0.108c-0.428 0.059-0.84 0.249-1.268 0.3 c-1.813 0.168-3.629 0.311-5.445 0.445c-2.473 0.183-4.957 0.272-7.42 0.545c-2.882 0.319-5.746 0.805-8.621 1.2 c-2.52 0.341-5.052 0.605-7.567 0.984c-2.653 0.4-5.3 0.855-7.935 1.358c-3.486 0.666-6.959 1.398-10.435 2.1 c-3.763 0.77-7.546 1.456-11.28 2.344c-6.34 1.507-12.669 3.066-18.966 4.745c-8.474 2.259-16.917 4.622-25.122 7.8 c-5.349 2.054-10.825 3.782-16.153 5.885c-5.744 2.267-11.397 4.768-17.062 7.229c-3.402 1.478-6.736 3.115-10.144 4.6 c-0.575 0.247-1.53 1.031-1.962 0.224c-0.466-0.869 0.648-1.416 1.262-1.741c2.374-1.259 4.562-2.918 7.203-3.617 c0.606-0.16 1.013-0.434 1.462-0.833c0.759-0.675 1.557-1.382 2.465-1.801c6.154-2.838 11.92-6.412 17.991-9.403 c3.005-1.481 6.029-2.924 9.052-4.369C68.903 18.6 69.5 18.1 70.4 18.659z"/><path fill="#818181" d="M74.814 1.452c-0.254 0.281-0.436 0.622-0.719 0.77c-1.416 0.741-2.826 1.507-4.296 2.1 c-7.095 2.988-14.344 5.623-21.18 9.2c-3.351 1.754-6.675 3.563-9.967 5.426c-0.584 0.331-1.082 0.987-1.377 1.6 c-0.353 0.744-0.903 1.102-1.593 1.364c-0.202 0.077-0.446 0.056-0.636 0.151c-1.362 0.682-2.652 1.717-4.087 2 c-1.433 0.265-3.004-0.258-4.519-0.395c-1.939-0.175-3.692 0.329-5.471 1.169c-5.975 2.822-11.987 5.575-18.2 7.9 c-0.34 0.125-0.685 0.236-1.032 0.341C1.164 33.2 0.6 33.8 0 33.102c0.413-0.469 0.742-1.093 1.257-1.377 c1.205-0.663 2.455-1.323 3.768-1.698c4.699-1.343 9.076-3.45 13.498-5.461c2.38-1.083 4.804-2.071 7.175-3.174 c2.042-0.949 4.001-2.079 6.059-2.989c4.251-1.879 8.459-3.909 12.842-5.423c4.889-1.689 9.453-4.083 14.243-5.968 c4.39-1.727 8.729-3.585 13.102-5.359c0.73-0.296 1.51-0.481 2.28-0.657C74.353 1 74.6 1.2 74.8 1.452z M43.841 14.2 c-2.297 0.965-4.15 1.707-5.972 2.518c-1.858 0.828-3.718 1.661-5.516 2.608c-1.726 0.909-3.857 0.968-5.528 2.5 c0.55 0.2 0.9 0.4 1.2 0.459c1.707 0.1 3.366-0.197 4.847-0.989c3.135-1.677 6.201-3.48 9.29-5.241 c0.377-0.215 0.748-0.458 1.071-0.746C43.408 15.2 43.5 14.9 43.8 14.236z"/><path fill="#818181" d="M38.865 20.673c4.081-0.892 8.16-1.788 12.242-2.676c1.769-0.385 3.54-0.761 5.314-1.121 c0.421-0.085 0.942-0.258 1.275-0.097c1.261 0.6 2.4 0.1 3.611-0.15c1.554-0.337 3.118-0.661 4.695-0.85 c1.877-0.225 3.771-0.301 5.658-0.441c0.633-0.047 1.2 0.1 1.4 0.758c0.187 0.661-0.225 1.121-0.765 1.4 c-0.606 0.349-1.24 0.959-1.618-0.325c-0.082-0.278-0.858-0.524-1.294-0.494c-1.448 0.1-2.913 0.216-4.324 0.5 c-3.472 0.79-6.964 1.362-10.51 1.728c-2.803 0.289-5.555 1.045-8.353 1.42C43.798 20.7 41.4 21.2 38.9 20.673z"/><path fill="#818181" d="M44.516 24.913c-0.069 0.088-0.215 0.444-0.394 0.462c-0.223 0.022-0.489-0.215-0.708-0.379 c-0.105-0.079-0.159-0.239-0.212-0.372c-0.584-1.486-0.865-1.592-2.243-1.079c-2.171 0.809-4.357 1.578-6.548 2.3 c-0.614 0.211-1.262 0.385-1.905 0.435c-0.56 0.044-1.15-0.058-1.696-0.207c-0.188-0.051-0.397-0.447-0.384-0.672 c0.009-0.151 0.409-0.423 0.604-0.399c2.048 0.3 3.856-0.536 5.703-1.205c1.966-0.712 4.119-0.856 5.959-1.971 c0.161-0.098 0.566-0.022 0.7 0.122C44.169 22.7 44.6 23.6 44.5 24.913z"/></g></g></svg>